<mxfile host="app.diagrams.net" agent="Mozilla/5.0 (Macintosh; Intel Mac OS X 10_15_7) AppleWebKit/537.36 (KHTML, like Gecko) Chrome/140.0.0.0 Safari/537.36" version="28.2.1">
  <diagram name="Page 2" id="Dv0-IY6-MKVu909UZy3m">
    <mxGraphModel dx="1158" dy="1939" grid="1" gridSize="10" guides="1" tooltips="1" connect="1" arrows="1" fold="1" page="1" pageScale="1" pageWidth="827" pageHeight="1169" math="0" shadow="0">
      <root>
        <mxCell id="0" />
        <mxCell id="1" parent="0" />
        <mxCell id="2abWFrvSycyo9j-32-vF-10" value="" style="group" vertex="1" connectable="0" parent="1">
          <mxGeometry x="250" y="390" width="810" height="420" as="geometry" />
        </mxCell>
        <mxCell id="2abWFrvSycyo9j-32-vF-8" value="" style="shape=folder;fontStyle=1;spacingTop=10;tabWidth=40;tabHeight=14;tabPosition=left;html=1;whiteSpace=wrap;" vertex="1" parent="2abWFrvSycyo9j-32-vF-10">
          <mxGeometry x="10" width="800" height="420" as="geometry" />
        </mxCell>
        <mxCell id="2abWFrvSycyo9j-32-vF-9" value="Entities" style="text;align=center;fontStyle=1;verticalAlign=middle;spacingLeft=3;spacingRight=3;strokeColor=none;rotatable=0;points=[[0,0.5],[1,0.5]];portConstraint=eastwest;html=1;fontSize=10;" vertex="1" parent="2abWFrvSycyo9j-32-vF-10">
          <mxGeometry y="-5" width="60" height="26.086956521739133" as="geometry" />
        </mxCell>
        <mxCell id="2abWFrvSycyo9j-32-vF-1" value="Conteudo" style="swimlane;fontStyle=1;align=center;verticalAlign=top;childLayout=stackLayout;horizontal=1;startSize=26;horizontalStack=0;resizeParent=1;resizeParentMax=0;resizeLast=0;collapsible=1;marginBottom=0;whiteSpace=wrap;html=1;" vertex="1" parent="2abWFrvSycyo9j-32-vF-10">
          <mxGeometry x="149" y="40" width="210" height="112" as="geometry" />
        </mxCell>
        <mxCell id="2abWFrvSycyo9j-32-vF-2" value="+ nome: string" style="text;strokeColor=none;fillColor=none;align=left;verticalAlign=top;spacingLeft=4;spacingRight=4;overflow=hidden;rotatable=0;points=[[0,0.5],[1,0.5]];portConstraint=eastwest;whiteSpace=wrap;html=1;" vertex="1" parent="2abWFrvSycyo9j-32-vF-1">
          <mxGeometry y="26" width="210" height="26" as="geometry" />
        </mxCell>
        <mxCell id="2abWFrvSycyo9j-32-vF-6" value="+ dataLancamento: LocalDate" style="text;strokeColor=none;fillColor=none;align=left;verticalAlign=top;spacingLeft=4;spacingRight=4;overflow=hidden;rotatable=0;points=[[0,0.5],[1,0.5]];portConstraint=eastwest;whiteSpace=wrap;html=1;" vertex="1" parent="2abWFrvSycyo9j-32-vF-1">
          <mxGeometry y="52" width="210" height="26" as="geometry" />
        </mxCell>
        <mxCell id="2abWFrvSycyo9j-32-vF-7" value="+ avaliacoes: ArrayList&amp;lt;Avaliacao&amp;gt;" style="text;strokeColor=none;fillColor=none;align=left;verticalAlign=top;spacingLeft=4;spacingRight=4;overflow=hidden;rotatable=0;points=[[0,0.5],[1,0.5]];portConstraint=eastwest;whiteSpace=wrap;html=1;" vertex="1" parent="2abWFrvSycyo9j-32-vF-1">
          <mxGeometry y="78" width="210" height="26" as="geometry" />
        </mxCell>
        <mxCell id="2abWFrvSycyo9j-32-vF-3" value="" style="line;strokeWidth=1;fillColor=none;align=left;verticalAlign=middle;spacingTop=-1;spacingLeft=3;spacingRight=3;rotatable=0;labelPosition=right;points=[];portConstraint=eastwest;strokeColor=inherit;" vertex="1" parent="2abWFrvSycyo9j-32-vF-1">
          <mxGeometry y="104" width="210" height="8" as="geometry" />
        </mxCell>
        <mxCell id="2abWFrvSycyo9j-32-vF-11" value="Jogo" style="swimlane;fontStyle=1;align=center;verticalAlign=top;childLayout=stackLayout;horizontal=1;startSize=26;horizontalStack=0;resizeParent=1;resizeParentMax=0;resizeLast=0;collapsible=1;marginBottom=0;whiteSpace=wrap;html=1;" vertex="1" parent="2abWFrvSycyo9j-32-vF-10">
          <mxGeometry x="30" y="240" width="220" height="164" as="geometry" />
        </mxCell>
        <mxCell id="2abWFrvSycyo9j-32-vF-12" value="+ plataforma: String" style="text;strokeColor=none;fillColor=none;align=left;verticalAlign=top;spacingLeft=4;spacingRight=4;overflow=hidden;rotatable=0;points=[[0,0.5],[1,0.5]];portConstraint=eastwest;whiteSpace=wrap;html=1;" vertex="1" parent="2abWFrvSycyo9j-32-vF-11">
          <mxGeometry y="26" width="220" height="26" as="geometry" />
        </mxCell>
        <mxCell id="2abWFrvSycyo9j-32-vF-15" value="- mediaAvaliacoes: double" style="text;strokeColor=none;fillColor=none;align=left;verticalAlign=top;spacingLeft=4;spacingRight=4;overflow=hidden;rotatable=0;points=[[0,0.5],[1,0.5]];portConstraint=eastwest;whiteSpace=wrap;html=1;" vertex="1" parent="2abWFrvSycyo9j-32-vF-11">
          <mxGeometry y="52" width="220" height="26" as="geometry" />
        </mxCell>
        <mxCell id="2abWFrvSycyo9j-32-vF-13" value="" style="line;strokeWidth=1;fillColor=none;align=left;verticalAlign=middle;spacingTop=-1;spacingLeft=3;spacingRight=3;rotatable=0;labelPosition=right;points=[];portConstraint=eastwest;strokeColor=inherit;" vertex="1" parent="2abWFrvSycyo9j-32-vF-11">
          <mxGeometry y="78" width="220" height="8" as="geometry" />
        </mxCell>
        <mxCell id="2abWFrvSycyo9j-32-vF-14" value="+ calcularAvaliacoes(): double" style="text;strokeColor=none;fillColor=none;align=left;verticalAlign=top;spacingLeft=4;spacingRight=4;overflow=hidden;rotatable=0;points=[[0,0.5],[1,0.5]];portConstraint=eastwest;whiteSpace=wrap;html=1;" vertex="1" parent="2abWFrvSycyo9j-32-vF-11">
          <mxGeometry y="86" width="220" height="26" as="geometry" />
        </mxCell>
        <mxCell id="2abWFrvSycyo9j-32-vF-19" value="+ recalcularMediaAvaliacoes(): void" style="text;strokeColor=none;fillColor=none;align=left;verticalAlign=top;spacingLeft=4;spacingRight=4;overflow=hidden;rotatable=0;points=[[0,0.5],[1,0.5]];portConstraint=eastwest;whiteSpace=wrap;html=1;" vertex="1" parent="2abWFrvSycyo9j-32-vF-11">
          <mxGeometry y="112" width="220" height="26" as="geometry" />
        </mxCell>
        <mxCell id="2abWFrvSycyo9j-32-vF-20" value="+ getMediaAvaliacoes(): double" style="text;strokeColor=none;fillColor=none;align=left;verticalAlign=top;spacingLeft=4;spacingRight=4;overflow=hidden;rotatable=0;points=[[0,0.5],[1,0.5]];portConstraint=eastwest;whiteSpace=wrap;html=1;" vertex="1" parent="2abWFrvSycyo9j-32-vF-11">
          <mxGeometry y="138" width="220" height="26" as="geometry" />
        </mxCell>
        <mxCell id="2abWFrvSycyo9j-32-vF-17" value="Extends" style="endArrow=block;endSize=16;endFill=0;html=1;rounded=0;edgeStyle=orthogonalEdgeStyle;" edge="1" parent="2abWFrvSycyo9j-32-vF-10" source="2abWFrvSycyo9j-32-vF-11" target="2abWFrvSycyo9j-32-vF-1">
          <mxGeometry width="160" relative="1" as="geometry">
            <mxPoint x="60" y="220" as="sourcePoint" />
            <mxPoint x="220" y="220" as="targetPoint" />
          </mxGeometry>
        </mxCell>
        <mxCell id="2abWFrvSycyo9j-32-vF-21" value="Serie" style="swimlane;fontStyle=1;align=center;verticalAlign=top;childLayout=stackLayout;horizontal=1;startSize=26;horizontalStack=0;resizeParent=1;resizeParentMax=0;resizeLast=0;collapsible=1;marginBottom=0;whiteSpace=wrap;html=1;" vertex="1" parent="2abWFrvSycyo9j-32-vF-10">
          <mxGeometry x="290" y="240" width="160" height="86" as="geometry" />
        </mxCell>
        <mxCell id="2abWFrvSycyo9j-32-vF-22" value="+ field: type" style="text;strokeColor=none;fillColor=none;align=left;verticalAlign=top;spacingLeft=4;spacingRight=4;overflow=hidden;rotatable=0;points=[[0,0.5],[1,0.5]];portConstraint=eastwest;whiteSpace=wrap;html=1;" vertex="1" parent="2abWFrvSycyo9j-32-vF-21">
          <mxGeometry y="26" width="160" height="26" as="geometry" />
        </mxCell>
        <mxCell id="2abWFrvSycyo9j-32-vF-23" value="" style="line;strokeWidth=1;fillColor=none;align=left;verticalAlign=middle;spacingTop=-1;spacingLeft=3;spacingRight=3;rotatable=0;labelPosition=right;points=[];portConstraint=eastwest;strokeColor=inherit;" vertex="1" parent="2abWFrvSycyo9j-32-vF-21">
          <mxGeometry y="52" width="160" height="8" as="geometry" />
        </mxCell>
        <mxCell id="2abWFrvSycyo9j-32-vF-24" value="+ method(type): type" style="text;strokeColor=none;fillColor=none;align=left;verticalAlign=top;spacingLeft=4;spacingRight=4;overflow=hidden;rotatable=0;points=[[0,0.5],[1,0.5]];portConstraint=eastwest;whiteSpace=wrap;html=1;" vertex="1" parent="2abWFrvSycyo9j-32-vF-21">
          <mxGeometry y="60" width="160" height="26" as="geometry" />
        </mxCell>
        <mxCell id="2abWFrvSycyo9j-32-vF-25" value="Extends" style="endArrow=block;endSize=16;endFill=0;html=1;rounded=0;edgeStyle=orthogonalEdgeStyle;" edge="1" parent="2abWFrvSycyo9j-32-vF-10" source="2abWFrvSycyo9j-32-vF-21" target="2abWFrvSycyo9j-32-vF-1">
          <mxGeometry width="160" relative="1" as="geometry">
            <mxPoint x="140" y="220" as="sourcePoint" />
            <mxPoint x="300" y="220" as="targetPoint" />
          </mxGeometry>
        </mxCell>
        <mxCell id="2abWFrvSycyo9j-32-vF-26" value="Avaliacao" style="swimlane;fontStyle=1;align=center;verticalAlign=top;childLayout=stackLayout;horizontal=1;startSize=26;horizontalStack=0;resizeParent=1;resizeParentMax=0;resizeLast=0;collapsible=1;marginBottom=0;whiteSpace=wrap;html=1;" vertex="1" parent="2abWFrvSycyo9j-32-vF-10">
          <mxGeometry x="530" y="40" width="160" height="86" as="geometry" />
        </mxCell>
        <mxCell id="2abWFrvSycyo9j-32-vF-27" value="+ nomeUsuario: string" style="text;strokeColor=none;fillColor=none;align=left;verticalAlign=top;spacingLeft=4;spacingRight=4;overflow=hidden;rotatable=0;points=[[0,0.5],[1,0.5]];portConstraint=eastwest;whiteSpace=wrap;html=1;" vertex="1" parent="2abWFrvSycyo9j-32-vF-26">
          <mxGeometry y="26" width="160" height="26" as="geometry" />
        </mxCell>
        <mxCell id="2abWFrvSycyo9j-32-vF-31" value="+ nota: int" style="text;strokeColor=none;fillColor=none;align=left;verticalAlign=top;spacingLeft=4;spacingRight=4;overflow=hidden;rotatable=0;points=[[0,0.5],[1,0.5]];portConstraint=eastwest;whiteSpace=wrap;html=1;" vertex="1" parent="2abWFrvSycyo9j-32-vF-26">
          <mxGeometry y="52" width="160" height="26" as="geometry" />
        </mxCell>
        <mxCell id="2abWFrvSycyo9j-32-vF-28" value="" style="line;strokeWidth=1;fillColor=none;align=left;verticalAlign=middle;spacingTop=-1;spacingLeft=3;spacingRight=3;rotatable=0;labelPosition=right;points=[];portConstraint=eastwest;strokeColor=inherit;" vertex="1" parent="2abWFrvSycyo9j-32-vF-26">
          <mxGeometry y="78" width="160" height="8" as="geometry" />
        </mxCell>
        <mxCell id="2abWFrvSycyo9j-32-vF-32" value="Contêm" style="endArrow=open;html=1;endSize=12;startArrow=diamondThin;startSize=14;startFill=0;edgeStyle=orthogonalEdgeStyle;rounded=0;" edge="1" parent="2abWFrvSycyo9j-32-vF-10" source="2abWFrvSycyo9j-32-vF-26" target="2abWFrvSycyo9j-32-vF-1">
          <mxGeometry relative="1" as="geometry">
            <mxPoint x="370" y="210" as="sourcePoint" />
            <mxPoint x="530" y="210" as="targetPoint" />
          </mxGeometry>
        </mxCell>
        <mxCell id="2abWFrvSycyo9j-32-vF-33" value="0..n" style="edgeLabel;resizable=0;html=1;align=left;verticalAlign=top;" connectable="0" vertex="1" parent="2abWFrvSycyo9j-32-vF-32">
          <mxGeometry x="-1" relative="1" as="geometry">
            <mxPoint x="-30" as="offset" />
          </mxGeometry>
        </mxCell>
        <mxCell id="2abWFrvSycyo9j-32-vF-34" value="1" style="edgeLabel;resizable=0;html=1;align=right;verticalAlign=top;" connectable="0" vertex="1" parent="2abWFrvSycyo9j-32-vF-32">
          <mxGeometry x="1" relative="1" as="geometry">
            <mxPoint x="11" as="offset" />
          </mxGeometry>
        </mxCell>
        <mxCell id="2abWFrvSycyo9j-32-vF-16" value="Comment1 body" style="shape=note2;boundedLbl=1;whiteSpace=wrap;html=1;size=25;verticalAlign=top;align=center;" vertex="1" parent="1">
          <mxGeometry y="440" width="120" height="60" as="geometry" />
        </mxCell>
        <mxCell id="2abWFrvSycyo9j-32-vF-18" value="" style="endArrow=none;dashed=1;html=1;dashPattern=1 3;strokeWidth=2;rounded=0;" edge="1" parent="1" source="2abWFrvSycyo9j-32-vF-11" target="2abWFrvSycyo9j-32-vF-16">
          <mxGeometry width="50" height="50" relative="1" as="geometry">
            <mxPoint x="270" y="570" as="sourcePoint" />
            <mxPoint x="320" y="520" as="targetPoint" />
          </mxGeometry>
        </mxCell>
        <mxCell id="2abWFrvSycyo9j-32-vF-80" value="" style="group" vertex="1" connectable="0" parent="1">
          <mxGeometry x="246" y="-85" width="454" height="425" as="geometry" />
        </mxCell>
        <mxCell id="2abWFrvSycyo9j-32-vF-67" value="" style="shape=folder;fontStyle=1;spacingTop=10;tabWidth=40;tabHeight=14;tabPosition=left;html=1;whiteSpace=wrap;" vertex="1" parent="2abWFrvSycyo9j-32-vF-80">
          <mxGeometry x="9" y="5" width="445" height="420" as="geometry" />
        </mxCell>
        <mxCell id="2abWFrvSycyo9j-32-vF-68" value="Services" style="text;align=center;fontStyle=1;verticalAlign=middle;spacingLeft=3;spacingRight=3;strokeColor=none;rotatable=0;points=[[0,0.5],[1,0.5]];portConstraint=eastwest;html=1;fontSize=10;" vertex="1" parent="2abWFrvSycyo9j-32-vF-80">
          <mxGeometry width="60" height="26.086956521739133" as="geometry" />
        </mxCell>
        <mxCell id="2abWFrvSycyo9j-32-vF-69" value="JogoService" style="swimlane;fontStyle=1;align=center;verticalAlign=top;childLayout=stackLayout;horizontal=1;startSize=26;horizontalStack=0;resizeParent=1;resizeParentMax=0;resizeLast=0;collapsible=1;marginBottom=0;whiteSpace=wrap;html=1;" vertex="1" parent="1">
          <mxGeometry x="390" y="40" width="190" height="260" as="geometry" />
        </mxCell>
        <mxCell id="2abWFrvSycyo9j-32-vF-70" value="+ MENU_JOGOS: string" style="text;strokeColor=none;fillColor=none;align=left;verticalAlign=top;spacingLeft=4;spacingRight=4;overflow=hidden;rotatable=0;points=[[0,0.5],[1,0.5]];portConstraint=eastwest;whiteSpace=wrap;html=1;" vertex="1" parent="2abWFrvSycyo9j-32-vF-69">
          <mxGeometry y="26" width="190" height="26" as="geometry" />
        </mxCell>
        <mxCell id="2abWFrvSycyo9j-32-vF-71" value="" style="line;strokeWidth=1;fillColor=none;align=left;verticalAlign=middle;spacingTop=-1;spacingLeft=3;spacingRight=3;rotatable=0;labelPosition=right;points=[];portConstraint=eastwest;strokeColor=inherit;" vertex="1" parent="2abWFrvSycyo9j-32-vF-69">
          <mxGeometry y="52" width="190" height="8" as="geometry" />
        </mxCell>
        <mxCell id="2abWFrvSycyo9j-32-vF-72" value="+ adicionarJogo(Scanner scan, &lt;br&gt;List&amp;lt;Conteudo&amp;gt; colecao): void" style="text;strokeColor=none;fillColor=none;align=left;verticalAlign=top;spacingLeft=4;spacingRight=4;overflow=hidden;rotatable=0;points=[[0,0.5],[1,0.5]];portConstraint=eastwest;whiteSpace=wrap;html=1;" vertex="1" parent="2abWFrvSycyo9j-32-vF-69">
          <mxGeometry y="60" width="190" height="40" as="geometry" />
        </mxCell>
        <mxCell id="2abWFrvSycyo9j-32-vF-73" value="+ removerJogo(Scanner scan, &lt;br&gt;List&amp;lt;Conteudo&amp;gt; colecao): void" style="text;strokeColor=none;fillColor=none;align=left;verticalAlign=top;spacingLeft=4;spacingRight=4;overflow=hidden;rotatable=0;points=[[0,0.5],[1,0.5]];portConstraint=eastwest;whiteSpace=wrap;html=1;" vertex="1" parent="2abWFrvSycyo9j-32-vF-69">
          <mxGeometry y="100" width="190" height="40" as="geometry" />
        </mxCell>
        <mxCell id="2abWFrvSycyo9j-32-vF-74" value="+ avaliarJogo(Scanner scan, &lt;br&gt;List&amp;lt;Conteudo&amp;gt; colecao): void" style="text;strokeColor=none;fillColor=none;align=left;verticalAlign=top;spacingLeft=4;spacingRight=4;overflow=hidden;rotatable=0;points=[[0,0.5],[1,0.5]];portConstraint=eastwest;whiteSpace=wrap;html=1;" vertex="1" parent="2abWFrvSycyo9j-32-vF-69">
          <mxGeometry y="140" width="190" height="40" as="geometry" />
        </mxCell>
        <mxCell id="2abWFrvSycyo9j-32-vF-75" value="+ listarAvaliacoes(Scanner scan, &lt;br&gt;List&amp;lt;Conteudo&amp;gt; colecao): void" style="text;strokeColor=none;fillColor=none;align=left;verticalAlign=top;spacingLeft=4;spacingRight=4;overflow=hidden;rotatable=0;points=[[0,0.5],[1,0.5]];portConstraint=eastwest;whiteSpace=wrap;html=1;" vertex="1" parent="2abWFrvSycyo9j-32-vF-69">
          <mxGeometry y="180" width="190" height="40" as="geometry" />
        </mxCell>
        <mxCell id="2abWFrvSycyo9j-32-vF-76" value="+ listarJogos(List&amp;lt;Conteudo&amp;gt; colecao): void" style="text;strokeColor=none;fillColor=none;align=left;verticalAlign=top;spacingLeft=4;spacingRight=4;overflow=hidden;rotatable=0;points=[[0,0.5],[1,0.5]];portConstraint=eastwest;whiteSpace=wrap;html=1;" vertex="1" parent="2abWFrvSycyo9j-32-vF-69">
          <mxGeometry y="220" width="190" height="40" as="geometry" />
        </mxCell>
        <mxCell id="2abWFrvSycyo9j-32-vF-79" value="" style="group" vertex="1" connectable="0" parent="1">
          <mxGeometry x="720" y="-90" width="455" height="425" as="geometry" />
        </mxCell>
        <mxCell id="2abWFrvSycyo9j-32-vF-77" value="" style="shape=folder;fontStyle=1;spacingTop=10;tabWidth=40;tabHeight=14;tabPosition=left;html=1;whiteSpace=wrap;" vertex="1" parent="2abWFrvSycyo9j-32-vF-79">
          <mxGeometry x="10" y="5" width="445" height="420" as="geometry" />
        </mxCell>
        <mxCell id="2abWFrvSycyo9j-32-vF-78" value="Utils" style="text;align=center;fontStyle=1;verticalAlign=middle;spacingLeft=3;spacingRight=3;strokeColor=none;rotatable=0;points=[[0,0.5],[1,0.5]];portConstraint=eastwest;html=1;fontSize=10;" vertex="1" parent="2abWFrvSycyo9j-32-vF-79">
          <mxGeometry width="60" height="26.086956521739133" as="geometry" />
        </mxCell>
        <mxCell id="2abWFrvSycyo9j-32-vF-81" value="StringUtils" style="swimlane;fontStyle=1;align=center;verticalAlign=top;childLayout=stackLayout;horizontal=1;startSize=26;horizontalStack=0;resizeParent=1;resizeParentMax=0;resizeLast=0;collapsible=1;marginBottom=0;whiteSpace=wrap;html=1;" vertex="1" parent="1">
          <mxGeometry x="827" y="90" width="180" height="60" as="geometry" />
        </mxCell>
        <mxCell id="2abWFrvSycyo9j-32-vF-83" value="" style="line;strokeWidth=1;fillColor=none;align=left;verticalAlign=middle;spacingTop=-1;spacingLeft=3;spacingRight=3;rotatable=0;labelPosition=right;points=[];portConstraint=eastwest;strokeColor=inherit;" vertex="1" parent="2abWFrvSycyo9j-32-vF-81">
          <mxGeometry y="26" width="180" height="8" as="geometry" />
        </mxCell>
        <mxCell id="2abWFrvSycyo9j-32-vF-84" value="+ print(string message): void" style="text;strokeColor=none;fillColor=none;align=left;verticalAlign=top;spacingLeft=4;spacingRight=4;overflow=hidden;rotatable=0;points=[[0,0.5],[1,0.5]];portConstraint=eastwest;whiteSpace=wrap;html=1;" vertex="1" parent="2abWFrvSycyo9j-32-vF-81">
          <mxGeometry y="34" width="180" height="26" as="geometry" />
        </mxCell>
        <mxCell id="2abWFrvSycyo9j-32-vF-85" value="Use" style="endArrow=open;endSize=12;dashed=1;html=1;rounded=0;" edge="1" parent="1" source="2abWFrvSycyo9j-32-vF-69" target="2abWFrvSycyo9j-32-vF-81">
          <mxGeometry width="160" relative="1" as="geometry">
            <mxPoint x="650" y="200" as="sourcePoint" />
            <mxPoint x="810" y="200" as="targetPoint" />
          </mxGeometry>
        </mxCell>
      </root>
    </mxGraphModel>
  </diagram>
</mxfile>
